<svg xmlns="http://www.w3.org/2000/svg" viewBox="0 0 80 80">
  <!-- stem -->
  <path d="M 42 26 Q 44 16 48 12" stroke="#3d6b2c" stroke-width="3" fill="none" stroke-linecap="round"/>
  <!-- leaf right -->
  <ellipse cx="51" cy="10" rx="9" ry="5.5" fill="#5a9648" transform="rotate(-25 51 10)"/>
  <!-- leaf left -->
  <ellipse cx="41" cy="13" rx="8" ry="4.5" fill="#4a7c3f" transform="rotate(20 41 13)"/>
  <!-- potato body shadow -->
  <ellipse cx="41" cy="53" rx="30" ry="19" fill="#c2500a" opacity="0.25"/>
  <!-- potato body -->
  <path d="M 14 50 Q 12 38 22 34 Q 32 28 42 30 Q 58 28 66 36 Q 74 44 68 54 Q 64 62 52 65 Q 38 68 26 62 Q 14 56 14 50 Z" fill="#f97316"/>
  <!-- highlight stripe -->
  <path d="M 22 38 Q 40 32 60 40" stroke="#ffb36b" stroke-width="2.5" fill="none" stroke-linecap="round" opacity="0.7"/>
  <!-- skin groove 1 -->
  <path d="M 18 52 Q 30 58 46 55 Q 58 52 66 46" stroke="#c2500a" stroke-width="1.2" fill="none" stroke-linecap="round" opacity="0.4"/>
  <!-- tail left -->
  <path d="M 14 50 Q 8 50 7 46 Q 6 42 11 40" stroke="#f97316" stroke-width="4" fill="none" stroke-linecap="round"/>
  <!-- tail right -->
  <path d="M 68 54 Q 74 56 76 52 Q 78 46 74 43" stroke="#f97316" stroke-width="3.5" fill="none" stroke-linecap="round"/>
</svg>
